name Walk4.mot
datacolumns 19
datarows 22
range 2.48700000 2.50800000
endheader

                time	   L_ground_force_vx	   L_ground_force_vy	   L_ground_force_vz	   L_ground_force_px	   L_ground_force_py	   L_ground_force_pz	   R_ground_force_vx	   R_ground_force_vy	   R_ground_force_vz	   R_ground_force_px	   R_ground_force_py	   R_ground_force_pz	   L_ground_torque_x	   L_ground_torque_y	   L_ground_torque_z	   R_ground_torque_x	   R_ground_torque_y	   R_ground_torque_z	
          2.48700000	         -0.00000000	         -0.00000000	         -0.00000000	         -0.00000000	          0.00000000	         -0.00000000	         27.82152087	        123.19163299	         23.97392076	          0.52173665	          0.00000000	          0.10246752	          0.00000000	         -0.00000000	          0.00000000	          0.00000000	         -7.31538662	          0.00000000	
          2.48800000	         -0.00000000	         -0.00000000	         -0.00000000	         -0.00000000	          0.00000000	         -0.00000000	         26.46348259	        116.73140182	         23.37366537	          0.51640079	          0.00000000	          0.10139763	          0.00000000	         -0.00000000	          0.00000000	          0.00000000	         -7.00825505	          0.00000000	
          2.48900000	         -0.00000000	         -0.00000000	         -0.00000000	         -0.00000000	          0.00000000	         -0.00000000	         25.13168681	        110.46199601	         22.75857521	          0.51071600	          0.00000000	          0.10026182	          0.00000000	         -0.00000000	          0.00000000	          0.00000000	         -6.70571346	          0.00000000	
          2.49000000	         -0.00000000	         -0.00000000	         -0.00000000	         -0.00000000	          0.00000000	         -0.00000000	         23.82719668	        104.38344746	         22.13015451	          0.50467513	          0.00000000	          0.09905860	          0.00000000	         -0.00000000	          0.00000000	          0.00000000	         -6.40799279	          0.00000000	
          2.49100000	         -0.00000000	         -0.00000000	         -0.00000000	         -0.00000000	          0.00000000	         -0.00000000	         22.55104592	         98.49547776	         21.48992842	          0.49827185	          0.00000000	          0.09778662	          0.00000000	         -0.00000000	          0.00000000	          0.00000000	         -6.11531983	          0.00000000	
          2.49200000	         -0.00000000	         -0.00000000	         -0.00000000	         -0.00000000	          0.00000000	         -0.00000000	         21.30423445	         92.79750995	         20.83943897	          0.49150073	          0.00000000	          0.09644469	          0.00000000	         -0.00000000	          0.00000000	          0.00000000	         -5.82791662	          0.00000000	
          2.49300000	         -0.00000000	         -0.00000000	         -0.00000000	         -0.00000000	          0.00000000	         -0.00000000	         20.08772422	         87.28868129	         20.18024097	          0.48435737	          0.00000000	          0.09503177	          0.00000000	         -0.00000000	          0.00000000	          0.00000000	         -5.54599956	          0.00000000	
          2.49400000	         -0.00000000	         -0.00000000	         -0.00000000	         -0.00000000	          0.00000000	         -0.00000000	         18.90243471	         81.96785776	         19.51389728	          0.47683851	          0.00000000	          0.09354703	          0.00000000	         -0.00000000	          0.00000000	          0.00000000	         -5.26977825	          0.00000000	
          2.49500000	         -0.00000000	         -0.00000000	         -0.00000000	         -0.00000000	          0.00000000	         -0.00000000	         17.74923798	         76.83365066	         18.84197380	          0.46894217	          0.00000000	          0.09198987	          0.00000000	         -0.00000000	          0.00000000	          0.00000000	         -4.99945425	          0.00000000	
          2.49600000	         -0.00000000	         -0.00000000	         -0.00000000	         -0.00000000	          0.00000000	         -0.00000000	         16.62895291	         71.88443526	         18.16603382	          0.46066779	          0.00000000	          0.09035993	          0.00000000	         -0.00000000	          0.00000000	          0.00000000	         -4.73521997	          0.00000000	
          2.49700000	         -0.00000000	         -0.00000000	         -0.00000000	         -0.00000000	          0.00000000	         -0.00000000	         15.54233874	         67.11837092	         17.48763218	          0.45201639	          0.00000000	          0.08865714	          0.00000000	         -0.00000000	          0.00000000	          0.00000000	         -4.47725779	          0.00000000	
          2.49800000	         -0.00000000	         -0.00000000	         -0.00000000	         -0.00000000	          0.00000000	         -0.00000000	         14.49008811	         62.53342146	         16.80830906	          0.44299071	          0.00000000	          0.08688177	          0.00000000	         -0.00000000	          0.00000000	          0.00000000	         -4.22573935	          0.00000000	
          2.49900000	         -0.00000000	         -0.00000000	          0.00000000	         -0.00000000	          0.00000000	         -0.00000000	         13.47282025	         58.12737480	         16.12958383	          0.43359539	          0.00000000	          0.08503448	          0.00000000	         -0.00000000	          0.00000000	          0.00000000	         -3.98082509	          0.00000000	
          2.50000000	         -0.00000000	         -0.00000000	          0.00000000	         -0.00000000	          0.00000000	         -0.00000000	         12.49107445	         53.89786125	         15.45294871	          0.42383711	          0.00000000	          0.08311635	          0.00000000	         -0.00000000	          0.00000000	          0.00000000	         -3.74266384	          0.00000000	
          2.50100000	         -0.00000000	         -0.00000000	          0.00000000	         -0.00000000	          0.00000000	         -0.00000000	         11.54530422	         49.84237040	         14.77986253	          0.41372476	          0.00000000	          0.08112894	          0.00000000	         -0.00000000	          0.00000000	          0.00000000	         -3.51139256	          0.00000000	
          2.50200000	         -0.00000000	         -0.00000000	          0.00000000	         -0.00000000	          0.00000000	         -0.00000000	         10.63587206	         45.95826711	         14.11174460	          0.40326957	          0.00000000	          0.07907436	          0.00000000	         -0.00000000	          0.00000000	          0.00000000	         -3.28713583	          0.00000000	
          2.50300000	         -0.00000000	         -0.00000000	          0.00000000	         -0.00000000	          0.00000000	         -0.00000000	          9.76304467	         42.24280735	         13.44996925	          0.39248534	          0.00000000	          0.07695524	          0.00000000	         -0.00000000	          0.00000000	          0.00000000	         -3.07000528	          0.00000000	
          2.50400000	         -0.00000000	         -0.00000000	          0.00000000	         -0.00000000	          0.00000000	         -0.00000000	          8.92698854	         38.69315449	         12.79586105	          0.38138860	          0.00000000	          0.07477483	          0.00000000	         -0.00000000	          0.00000000	          0.00000000	         -2.86009859	          0.00000000	
          2.50500000	         -0.00000000	         -0.00000000	          0.00000000	         -0.00000000	          0.00000000	         -0.00000000	          8.12776576	         35.30639603	         12.15069121	          0.36999883	          0.00000000	          0.07253699	          0.00000000	         -0.00000000	          0.00000000	          0.00000000	         -2.65749847	          0.00000000	
          2.50600000	         -0.00000000	         -0.00000000	          0.00000000	         -0.00000000	          0.00000000	         -0.00000000	          7.36532986	         32.07956039	         11.51567482	          0.35833876	          0.00000000	          0.07024623	          0.00000000	         -0.00000000	          0.00000000	          0.00000000	         -2.46227151	          0.00000000	
          2.50700000	         -0.00000000	         -0.00000000	          0.00000000	         -0.00000000	          0.00000000	         -0.00000000	          6.63952189	         29.00963273	         10.89196854	          0.34643456	          0.00000000	          0.06790777	          0.00000000	         -0.00000000	          0.00000000	          0.00000000	         -2.27446721	          0.00000000	
          2.50800000	         -0.00000000	         -0.00000000	          0.00000000	          0.00000000	          0.00000000	         -0.00000000	          5.95006713	         26.09356834	         10.28066810	          0.33431618	          0.00000000	          0.06552755	          0.00000000	         -0.00000000	          0.00000000	          0.00000000	         -2.09411728	          0.00000000	
